<?xml version="1.0" standalone="yes"?>

<svg version="1.1" viewBox="0.0 0.0 613.6115485564304 179.81627296587928" fill="none" stroke="none" stroke-linecap="square" stroke-miterlimit="10" xmlns="http://www.w3.org/2000/svg" xmlns:xlink="http://www.w3.org/1999/xlink"><clipPath id="p.0"><path d="m0 0l613.6116 0l0 179.81627l-613.6116 0l0 -179.81627z" clip-rule="nonzero"></path></clipPath><g clip-path="url(#p.0)"><path fill="#000000" fill-opacity="0.0" d="m0 0l613.6116 0l0 179.81627l-613.6116 0z" fill-rule="evenodd"></path><path fill="#ffffff" d="m-2.585642E-4 -4.012463E-7l0 85.570404l59.30264 0l0 -10.098007l-48.786446 0l0 -29.126625l43.962013 0l0 -10.0396385l-43.962013 0l0 -26.208126l46.943405 0l0 -10.098007z" fill-rule="evenodd"></path><path fill="#ffffff" d="m109.335594 54.459198l0 3.8524208c0 4.630684 -0.5240021 8.132885 -1.5720062 10.506596c-1.3732452 3.0741577 -3.523468 5.499748 -6.450653 7.2767944c-2.927185 1.7640686 -6.2699585 2.646103 -10.028328 2.646103c-3.7945023 0 -6.6795273 -0.9339142 -8.655075 -2.8017578c-1.9635086 -1.867836 -2.945259 -4.2026367 -2.945259 -7.0043945c0 -1.8289337 0.45172882 -3.489235 1.3551788 -4.9809113c0.90345764 -1.5046501 2.1863556 -2.646103 3.848709 -3.4243698c1.6623535 -0.7782669 4.499199 -1.4787064 8.510529 -2.1013222c7.083069 -1.0895729 12.3953705 -2.4126244 15.936905 -3.9691582zm-12.413437 -32.278603c-4.95092 0 -9.305565 0.7328682 -13.063927 2.1986027c-3.7583694 1.4527664 -6.6313477 3.534628 -8.618942 6.2455883c-1.9875946 2.6979942 -3.4150543 6.24559 -4.282364 10.642796l9.540459 1.4008789c1.0480042 -4.3972054 2.6621704 -7.4583855 4.8425064 -9.183544c2.1923752 -1.7381268 5.583336 -2.607193 10.172882 -2.607193c4.9147797 0 8.618935 1.1868553 11.112465 3.5605698c1.8430481 1.7510986 2.7645645 4.76688 2.7645645 9.047348c0 0.38913345 -0.018066406 1.3035965 -0.05420685 2.7433891c-3.7222214 1.4008789 -9.522392 2.607193 -17.400497 3.6189384c-3.8667755 0.50587463 -6.7578278 1.0312042 -8.673149 1.5759888c-2.601944 0.7782669 -4.9449005 1.9262123 -7.028862 3.4438324c-2.0719223 1.5176163 -3.7523422 3.5346222 -5.0412674 6.0510216c-1.276886 2.503418 -1.9153214 5.2727547 -1.9153214 8.307995c0 5.1754684 1.698494 9.429993 5.0954742 12.763573c3.396988 3.3205948 8.257561 4.9809036 14.581734 4.9809036c3.830635 0 7.4143295 -0.6809845 10.751083 -2.0429535c3.348793 -1.3619614 6.830101 -3.696762 10.443916 -7.0043945c0.28910065 2.9184952 0.93959045 5.4673233 1.9514542 7.646469l10.1909485 0c-1.2286911 -2.3737183 -2.053856 -4.8511963 -2.4754562 -7.4324493c-0.40957642 -2.594223 -0.61434937 -8.774956 -0.61434937 -18.542198l0 -14.008797c0 -4.6695976 -0.16262054 -7.8994026 -0.48786926 -9.689419c-0.5782089 -2.8795853 -1.5900726 -5.259781 -3.0355988 -7.1405945c-1.4455261 -1.8937798 -3.704155 -3.4632854 -6.775894 -4.7085114c-3.0717392 -1.2452278 -7.0650024 -1.8678398 -11.979782 -1.8678398z" fill-rule="evenodd"></path><path fill="#ffffff" d="m153.2434 22.180595c-2.9994507 0 -5.81221 0.4215622 -8.438248 1.2646828c-2.6139832 0.8301525 -4.679886 1.848383 -6.1976776 3.054697c-2.0237427 1.5565319 -3.6258698 3.515171 -4.806366 5.87591c-1.1684723 2.3477745 -1.7527008 4.90308 -1.7527008 7.665928c0 3.0352364 0.7107086 5.811058 2.132141 8.32745c1.4334717 2.5034218 3.5294952 4.468544 6.28804 5.8953705c2.770584 1.4138451 7.733536 3.0936089 14.888901 5.039276c5.3123016 1.4397926 8.637009 2.626648 9.974121 3.560566c1.9153137 1.3619652 2.8729706 3.2298088 2.8729706 5.6035194c0 2.6461105 -1.084137 4.9549637 -3.2524261 6.9265747c-2.1682892 1.9586334 -5.492996 2.9379578 -9.974121 2.9379578c-4.444992 0 -7.9082184 -1.1090317 -10.389709 -3.327095c-2.4694366 -2.2180557 -3.9751892 -5.408951 -4.5172577 -9.572678l-9.64888 1.6343613c1.0841522 6.576355 3.5836945 11.537804 7.498657 14.884346c3.927002 3.34655 9.630798 5.019821 17.111404 5.019821c4.5172577 0 8.564728 -0.8431244 12.142395 -2.5293655c3.5776825 -1.6992188 6.312134 -4.092392 8.203354 -7.179512c1.9032745 -3.1000977 2.8549194 -6.4012375 2.8549194 -9.903442c0 -3.5800247 -0.77697754 -6.5763474 -2.3309174 -8.988976c-1.5539398 -2.4126244 -3.69812 -4.2480392 -6.4325867 -5.506237c-2.7223969 -1.2711716 -7.53479 -2.899044 -14.437164 -4.883621c-4.770233 -1.4008789 -7.643219 -2.295887 -8.618942 -2.6850204c-1.6984863 -0.7393532 -2.9452515 -1.6732712 -3.7402954 -2.8017578c-0.79504395 -1.0895729 -1.1925659 -2.315342 -1.1925659 -3.677311c0 -2.140232 0.9576721 -4.008072 2.8729858 -5.6035156c1.9153137 -1.5954475 5.1135406 -2.3931713 9.594666 -2.3931713c3.79451 0 6.727722 0.8950062 8.799637 2.6850185c2.083969 1.7900124 3.3427734 4.280468 3.7764282 7.4713593l9.540466 -1.4008789c-0.61434937 -4.008072 -1.7346344 -7.205448 -3.360855 -9.592134c-1.6262054 -2.3996544 -4.1498566 -4.299923 -7.570923 -5.7008038c-3.409027 -1.4008789 -7.372177 -2.1013184 -11.88945 -2.1013184z" fill-rule="evenodd"></path><path fill="#ffffff" d="m273.80014 8.988977c1.2286987 4.630686 3.1078796 10.545511 5.6375427 17.744476l8.293701 23.698217l-26.940979 0l8.727356 -25.099096c1.8430481 -5.4089527 3.2705078 -10.856818 4.282379 -16.343597zm-5.4207153 -8.988977l-30.518631 85.570404l11.166672 0l8.727356 -25.916275l33.228973 0l9.26944 25.916275l11.979797 0l-32.524323 -85.570404zm-84.07532 23.581474l21.84549 62.105667c-0.39752197 1.1284866 -0.68663025 1.984581 -0.8673248 2.568283c-1.3732452 4.163727 -2.367035 6.770912 -2.9813843 7.821579c-0.83117676 1.4008789 -1.8972473 2.490448 -3.198227 3.268715c-1.3009644 0.7782669 -3.0355988 1.1674042 -5.203888 1.1674042c-1.5900726 0 -3.4511871 -0.3113098 -5.5833435 -0.9339218l0 0l1.0841522 9.864525c2.3128357 0.85609436 4.408844 1.2841415 6.288025 1.2841415c3.1078796 0 5.7821045 -0.81069183 8.022659 -2.4320831c2.24057 -1.6084137 4.2281647 -4.144272 5.962799 -7.6075516c1.3009644 -2.568283 3.125946 -7.2573395 5.4749146 -14.067169l21.899704 -63.03959l-9.757294 0l-12.305023 36.131023c-1.5539398 4.59177 -2.8910522 9.300282 -4.0113373 14.125538c-1.2286987 -5.019821 -2.6200104 -9.80616 -4.17395 -14.359016l-11.979782 -35.897545z" fill-rule="evenodd"></path><path fill="#ffffff" d="m342.64325 22.180595c-4.9509277 0 -9.534454 1.2581997 -13.750549 3.7745914c-4.204071 2.5034256 -7.3360596 6.265047 -9.395935 11.284864c-2.059845 5.019821 -3.0897827 10.876274 -3.0897827 17.569366c0 10.3509445 2.3911133 18.30223 7.173401 23.853867c4.7943115 5.538666 11.130554 8.307999 19.008636 8.307999c6.2880554 0 11.588287 -2.0105286 15.900787 -6.031563c4.324524 -4.0340195 7.0107727 -9.611595 8.058777 -16.732735l-9.594666 -1.3425102c-0.686615 5.2532997 -2.3128357 9.144634 -4.8786316 11.674c-2.565796 2.5293655 -5.764038 3.7940521 -9.594666 3.7940521c-4.770233 0 -8.637024 -1.8872986 -11.600342 -5.6618958c-2.9633179 -3.7745895 -4.444977 -9.825611 -4.444977 -18.15306c0 -8.210712 1.5358582 -14.20985 4.607605 -17.997414c3.0717468 -3.8005333 7.0650024 -5.7008038 11.979767 -5.7008038c3.2524414 0 6.023041 1.0506592 8.311768 3.1519794c2.3008118 2.1013184 3.9029236 5.233841 4.806366 9.397568l9.486267 -1.5759888c-1.1202698 -6.265045 -3.6680298 -11.096783 -7.643219 -14.495214c-3.9751892 -3.4113998 -9.088715 -5.1171017 -15.340607 -5.1171017z" fill-rule="evenodd"></path><path fill="#ffffff" d="m398.15137 22.180595c-4.950897 0 -9.534424 1.2581997 -13.750549 3.7745914c-4.204071 2.5034256 -7.336029 6.265047 -9.395905 11.284864c-2.0598755 5.019821 -3.0898132 10.876274 -3.0898132 17.569366c0 10.3509445 2.3911438 18.30223 7.1734314 23.853867c4.7943115 5.538666 11.130524 8.307999 19.008636 8.307999c6.288025 0 11.588287 -2.0105286 15.900757 -6.031563c4.3245544 -4.0340195 7.010803 -9.611595 8.058807 -16.732735l-9.594666 -1.3425102c-0.686615 5.2532997 -2.3128357 9.144634 -4.8786316 11.674c-2.5658264 2.5293655 -5.764038 3.7940521 -9.594666 3.7940521c-4.770233 0 -8.637024 -1.8872986 -11.600342 -5.6618958c-2.9633179 -3.7745895 -4.4450073 -9.825611 -4.4450073 -18.15306c0 -8.210712 1.5358887 -14.20985 4.6076355 -17.997414c3.0717163 -3.8005333 7.0650024 -5.7008038 11.979767 -5.7008038c3.2524414 0 6.023041 1.0506592 8.311768 3.1519794c2.3008118 2.1013184 3.9029236 5.233841 4.806366 9.397568l9.486267 -1.5759888c-1.1203003 -6.265045 -3.6680298 -11.096783 -7.643219 -14.495214c-3.9751892 -3.4113998 -9.088745 -5.1171017 -15.340637 -5.1171017z" fill-rule="evenodd"></path><path fill="#ffffff" d="m454.14737 30.819353c4.9509277 0 8.980316 2.0234928 12.088196 6.0704784c2.0237427 2.607193 3.2524414 6.5179825 3.6860962 11.732368l-32.144836 0c0.32522583 -5.408951 2.0116882 -9.7283325 5.059326 -12.9581375c3.0596924 -3.229805 6.8301086 -4.8447094 11.311218 -4.8447094zm-0.10839844 -8.638758c-7.9503784 0 -14.419098 2.8795853 -19.406158 8.638758c-4.9870605 5.7591724 -7.480591 13.853144 -7.480591 24.281916c0 10.078548 2.4634094 17.913097 7.3902283 23.50365c4.9388733 5.577568 11.618408 8.366364 20.038574 8.366364c6.6855774 0 12.178558 -1.7510986 16.479004 -5.2533035c4.300415 -3.5021973 7.2456665 -8.424728 8.835754 -14.767601l-10.08252 -1.342514c-1.4816895 4.436119 -3.4873352 7.665924 -6.0169983 9.689423c-2.529663 2.023491 -5.5833435 3.0352402 -9.161011 3.0352402c-4.806366 0 -8.8177185 -1.8094711 -12.033997 -5.4284134c-3.2163086 -3.6189346 -5.005127 -8.833321 -5.366516 -15.643154l42.932068 0c0.03616333 -1.2452278 0.054229736 -2.1791496 0.054229736 -2.8017616c0 -10.234203 -2.439331 -18.172523 -7.317993 -23.814955c-4.8786316 -5.6424313 -11.1666565 -8.463648 -18.864075 -8.463648z" fill-rule="evenodd"></path><path fill="#ffffff" d="m511.0649 22.180595c-2.9994812 0 -5.8122253 0.4215622 -8.438263 1.2646828c-2.6139832 0.8301525 -4.6798706 1.848383 -6.197693 3.054697c-2.0237122 1.5565319 -3.6258545 3.515171 -4.806366 5.87591c-1.168457 2.3477745 -1.7526855 4.90308 -1.7526855 7.665928c0 3.0352364 0.7107239 5.811058 2.132141 8.32745c1.4334717 2.5034218 3.52948 4.468544 6.288025 5.8953705c2.7705994 1.4138451 7.7335815 3.0936089 14.8888855 5.039276c5.312317 1.4397926 8.637024 2.626648 9.974121 3.560566c1.9153442 1.3619652 2.8729858 3.2298088 2.8729858 5.6035194c0 2.6461105 -1.0841064 4.9549637 -3.2523804 6.9265747c-2.168335 1.9586334 -5.493042 2.9379578 -9.974121 2.9379578c-4.4450073 0 -7.908264 -1.1090317 -10.38974 -3.327095c-2.469452 -2.2180557 -3.9751892 -5.408951 -4.5172424 -9.572678l-9.648895 1.6343613c1.084137 6.576355 3.5837097 11.537804 7.498657 14.884346c3.927002 3.34655 9.630798 5.019821 17.11142 5.019821c4.517273 0 8.564697 -0.8431244 12.142395 -2.5293655c3.5776367 -1.6992188 6.312134 -4.092392 8.203369 -7.179512c1.9032593 -3.1000977 2.8548584 -6.4012375 2.8548584 -9.903442c0 -3.5800247 -0.7769165 -6.5763474 -2.3308716 -8.988976c-1.5539551 -2.4126244 -3.69812 -4.2480392 -6.432617 -5.506237c-2.722412 -1.2711716 -7.53479 -2.899044 -14.437134 -4.883621c-4.7702637 -1.4008789 -7.643219 -2.295887 -8.6189575 -2.6850204c-1.6984863 -0.7393532 -2.9452515 -1.6732712 -3.7402954 -2.8017578c-0.79504395 -1.0895729 -1.1925659 -2.315342 -1.1925659 -3.677311c0 -2.140232 0.9576721 -4.008072 2.8729858 -5.6035156c1.9153137 -1.5954475 5.113556 -2.3931713 9.594666 -2.3931713c3.7944946 0 6.727722 0.8950062 8.799622 2.6850185c2.0839844 1.7900124 3.3427734 4.280468 3.7764282 7.4713593l9.540466 -1.4008789c-0.61431885 -4.008072 -1.7346191 -7.205448 -3.3608398 -9.592134c-1.6262207 -2.3996544 -4.1498413 -4.299923 -7.570923 -5.7008038c-3.4090576 -1.4008789 -7.3721924 -2.1013184 -11.889435 -2.1013184z" fill-rule="evenodd"></path><path fill="#ffffff" d="m566.57306 22.180595c-2.9994507 0 -5.812256 0.4215622 -8.438293 1.2646828c-2.6139526 0.8301525 -4.6798706 1.848383 -6.197632 3.054697c-2.0237427 1.5565319 -3.6259155 3.515171 -4.8063965 5.87591c-1.168457 2.3477745 -1.7526855 4.90308 -1.7526855 7.665928c0 3.0352364 0.71069336 5.811058 2.132141 8.32745c1.4334717 2.5034218 3.52948 4.468544 6.288025 5.8953705c2.7705688 1.4138451 7.7335815 3.0936089 14.888916 5.039276c5.312317 1.4397926 8.637024 2.626648 9.974121 3.560566c1.9152832 1.3619652 2.8729858 3.2298088 2.8729858 5.6035194c0 2.6461105 -1.0841675 4.9549637 -3.2524414 6.9265747c-2.168274 1.9586334 -5.492981 2.9379578 -9.974121 2.9379578c-4.4450073 0 -7.908264 -1.1090317 -10.389709 -3.327095c-2.4694214 -2.2180557 -3.9752197 -5.408951 -4.517273 -9.572678l-9.648865 1.6343613c1.0841675 6.576355 3.5836792 11.537804 7.498657 14.884346c3.927002 3.34655 9.630798 5.019821 17.11139 5.019821c4.517273 0 8.564758 -0.8431244 12.142395 -2.5293655c3.5776978 -1.6992188 6.312134 -4.092392 8.203369 -7.179512c1.9032593 -3.1000977 2.8549194 -6.4012375 2.8549194 -9.903442c0 -3.5800247 -0.77697754 -6.5763474 -2.3309326 -8.988976c-1.5539551 -2.4126244 -3.69812 -4.2480392 -6.432556 -5.506237c-2.722412 -1.2711716 -7.53479 -2.899044 -14.437195 -4.883621c-4.7702026 -1.4008789 -7.6431885 -2.295887 -8.6189575 -2.6850204c-1.6984863 -0.7393532 -2.9452515 -1.6732712 -3.7402954 -2.8017578c-0.79504395 -1.0895729 -1.1925659 -2.315342 -1.1925659 -3.677311c0 -2.140232 0.95770264 -4.008072 2.8729858 -5.6035156c1.9153442 -1.5954475 5.1135864 -2.3931713 9.594666 -2.3931713c3.7945557 0 6.727722 0.8950062 8.799683 2.6850185c2.0839233 1.7900124 3.3427734 4.280468 3.7764282 7.4713593l9.540466 -1.4008789c-0.6143799 -4.008072 -1.7346802 -7.205448 -3.3609009 -9.592134c-1.6261597 -2.3996544 -4.1498413 -4.299923 -7.570923 -5.7008038c-3.4089966 -1.4008789 -7.3721313 -2.1013184 -11.889404 -2.1013184z" fill-rule="evenodd"></path><path stroke="#ffffff" stroke-width="1.0" stroke-linejoin="round" stroke-linecap="butt" d="m-2.585642E-4 -4.012463E-7l0 85.570404l59.30264 0l0 -10.098007l-48.786446 0l0 -29.126625l43.962013 0l0 -10.0396385l-43.962013 0l0 -26.208126l46.943405 0l0 -10.098007z" fill-rule="evenodd"></path><path stroke="#ffffff" stroke-width="1.0" stroke-linejoin="round" stroke-linecap="butt" d="m109.335594 54.459198l0 3.8524208c0 4.630684 -0.5240021 8.132885 -1.5720062 10.506596c-1.3732452 3.0741577 -3.523468 5.499748 -6.450653 7.2767944c-2.927185 1.7640686 -6.2699585 2.646103 -10.028328 2.646103c-3.7945023 0 -6.6795273 -0.9339142 -8.655075 -2.8017578c-1.9635086 -1.867836 -2.945259 -4.2026367 -2.945259 -7.0043945c0 -1.8289337 0.45172882 -3.489235 1.3551788 -4.9809113c0.90345764 -1.5046501 2.1863556 -2.646103 3.848709 -3.4243698c1.6623535 -0.7782669 4.499199 -1.4787064 8.510529 -2.1013222c7.083069 -1.0895729 12.3953705 -2.4126244 15.936905 -3.9691582zm-12.413437 -32.278603c-4.95092 0 -9.305565 0.7328682 -13.063927 2.1986027c-3.7583694 1.4527664 -6.6313477 3.534628 -8.618942 6.2455883c-1.9875946 2.6979942 -3.4150543 6.24559 -4.282364 10.642796l9.540459 1.4008789c1.0480042 -4.3972054 2.6621704 -7.4583855 4.8425064 -9.183544c2.1923752 -1.7381268 5.583336 -2.607193 10.172882 -2.607193c4.9147797 0 8.618935 1.1868553 11.112465 3.5605698c1.8430481 1.7510986 2.7645645 4.76688 2.7645645 9.047348c0 0.38913345 -0.018066406 1.3035965 -0.05420685 2.7433891c-3.7222214 1.4008789 -9.522392 2.607193 -17.400497 3.6189384c-3.8667755 0.50587463 -6.7578278 1.0312042 -8.673149 1.5759888c-2.601944 0.7782669 -4.9449005 1.9262123 -7.028862 3.4438324c-2.0719223 1.5176163 -3.7523422 3.5346222 -5.0412674 6.0510216c-1.276886 2.503418 -1.9153214 5.2727547 -1.9153214 8.307995c0 5.1754684 1.698494 9.429993 5.0954742 12.763573c3.396988 3.3205948 8.257561 4.9809036 14.581734 4.9809036c3.830635 0 7.4143295 -0.6809845 10.751083 -2.0429535c3.348793 -1.3619614 6.830101 -3.696762 10.443916 -7.0043945c0.28910065 2.9184952 0.93959045 5.4673233 1.9514542 7.646469l10.1909485 0c-1.2286911 -2.3737183 -2.053856 -4.8511963 -2.4754562 -7.4324493c-0.40957642 -2.594223 -0.61434937 -8.774956 -0.61434937 -18.542198l0 -14.008797c0 -4.6695976 -0.16262054 -7.8994026 -0.48786926 -9.689419c-0.5782089 -2.8795853 -1.5900726 -5.259781 -3.0355988 -7.1405945c-1.4455261 -1.8937798 -3.704155 -3.4632854 -6.775894 -4.7085114c-3.0717392 -1.2452278 -7.0650024 -1.8678398 -11.979782 -1.8678398z" fill-rule="evenodd"></path><path stroke="#ffffff" stroke-width="1.0" stroke-linejoin="round" stroke-linecap="butt" d="m153.2434 22.180595c-2.9994507 0 -5.81221 0.4215622 -8.438248 1.2646828c-2.6139832 0.8301525 -4.679886 1.848383 -6.1976776 3.054697c-2.0237427 1.5565319 -3.6258698 3.515171 -4.806366 5.87591c-1.1684723 2.3477745 -1.7527008 4.90308 -1.7527008 7.665928c0 3.0352364 0.7107086 5.811058 2.132141 8.32745c1.4334717 2.5034218 3.5294952 4.468544 6.28804 5.8953705c2.770584 1.4138451 7.733536 3.0936089 14.888901 5.039276c5.3123016 1.4397926 8.637009 2.626648 9.974121 3.560566c1.9153137 1.3619652 2.8729706 3.2298088 2.8729706 5.6035194c0 2.6461105 -1.084137 4.9549637 -3.2524261 6.9265747c-2.1682892 1.9586334 -5.492996 2.9379578 -9.974121 2.9379578c-4.444992 0 -7.9082184 -1.1090317 -10.389709 -3.327095c-2.4694366 -2.2180557 -3.9751892 -5.408951 -4.5172577 -9.572678l-9.64888 1.6343613c1.0841522 6.576355 3.5836945 11.537804 7.498657 14.884346c3.927002 3.34655 9.630798 5.019821 17.111404 5.019821c4.5172577 0 8.564728 -0.8431244 12.142395 -2.5293655c3.5776825 -1.6992188 6.312134 -4.092392 8.203354 -7.179512c1.9032745 -3.1000977 2.8549194 -6.4012375 2.8549194 -9.903442c0 -3.5800247 -0.77697754 -6.5763474 -2.3309174 -8.988976c-1.5539398 -2.4126244 -3.69812 -4.2480392 -6.4325867 -5.506237c-2.7223969 -1.2711716 -7.53479 -2.899044 -14.437164 -4.883621c-4.770233 -1.4008789 -7.643219 -2.295887 -8.618942 -2.6850204c-1.6984863 -0.7393532 -2.9452515 -1.6732712 -3.7402954 -2.8017578c-0.79504395 -1.0895729 -1.1925659 -2.315342 -1.1925659 -3.677311c0 -2.140232 0.9576721 -4.008072 2.8729858 -5.6035156c1.9153137 -1.5954475 5.1135406 -2.3931713 9.594666 -2.3931713c3.79451 0 6.727722 0.8950062 8.799637 2.6850185c2.083969 1.7900124 3.3427734 4.280468 3.7764282 7.4713593l9.540466 -1.4008789c-0.61434937 -4.008072 -1.7346344 -7.205448 -3.360855 -9.592134c-1.6262054 -2.3996544 -4.1498566 -4.299923 -7.570923 -5.7008038c-3.409027 -1.4008789 -7.372177 -2.1013184 -11.88945 -2.1013184z" fill-rule="evenodd"></path><path stroke="#ffffff" stroke-width="1.0" stroke-linejoin="round" stroke-linecap="butt" d="m273.80014 8.988977c1.2286987 4.630686 3.1078796 10.545511 5.6375427 17.744476l8.293701 23.698217l-26.940979 0l8.727356 -25.099096c1.8430481 -5.4089527 3.2705078 -10.856818 4.282379 -16.343597zm-5.4207153 -8.988977l-30.518631 85.570404l11.166672 0l8.727356 -25.916275l33.228973 0l9.26944 25.916275l11.979797 0l-32.524323 -85.570404zm-84.07532 23.581474l21.84549 62.105667c-0.39752197 1.1284866 -0.68663025 1.984581 -0.8673248 2.568283c-1.3732452 4.163727 -2.367035 6.770912 -2.9813843 7.821579c-0.83117676 1.4008789 -1.8972473 2.490448 -3.198227 3.268715c-1.3009644 0.7782669 -3.0355988 1.1674042 -5.203888 1.1674042c-1.5900726 0 -3.4511871 -0.3113098 -5.5833435 -0.9339218l0 0l1.0841522 9.864525c2.3128357 0.85609436 4.408844 1.2841415 6.288025 1.2841415c3.1078796 0 5.7821045 -0.81069183 8.022659 -2.4320831c2.24057 -1.6084137 4.2281647 -4.144272 5.962799 -7.6075516c1.3009644 -2.568283 3.125946 -7.2573395 5.4749146 -14.067169l21.899704 -63.03959l-9.757294 0l-12.305023 36.131023c-1.5539398 4.59177 -2.8910522 9.300282 -4.0113373 14.125538c-1.2286987 -5.019821 -2.6200104 -9.80616 -4.17395 -14.359016l-11.979782 -35.897545z" fill-rule="evenodd"></path><path stroke="#ffffff" stroke-width="1.0" stroke-linejoin="round" stroke-linecap="butt" d="m342.64325 22.180595c-4.9509277 0 -9.534454 1.2581997 -13.750549 3.7745914c-4.204071 2.5034256 -7.3360596 6.265047 -9.395935 11.284864c-2.059845 5.019821 -3.0897827 10.876274 -3.0897827 17.569366c0 10.3509445 2.3911133 18.30223 7.173401 23.853867c4.7943115 5.538666 11.130554 8.307999 19.008636 8.307999c6.2880554 0 11.588287 -2.0105286 15.900787 -6.031563c4.324524 -4.0340195 7.0107727 -9.611595 8.058777 -16.732735l-9.594666 -1.3425102c-0.686615 5.2532997 -2.3128357 9.144634 -4.8786316 11.674c-2.565796 2.5293655 -5.764038 3.7940521 -9.594666 3.7940521c-4.770233 0 -8.637024 -1.8872986 -11.600342 -5.6618958c-2.9633179 -3.7745895 -4.444977 -9.825611 -4.444977 -18.15306c0 -8.210712 1.5358582 -14.20985 4.607605 -17.997414c3.0717468 -3.8005333 7.0650024 -5.7008038 11.979767 -5.7008038c3.2524414 0 6.023041 1.0506592 8.311768 3.1519794c2.3008118 2.1013184 3.9029236 5.233841 4.806366 9.397568l9.486267 -1.5759888c-1.1202698 -6.265045 -3.6680298 -11.096783 -7.643219 -14.495214c-3.9751892 -3.4113998 -9.088715 -5.1171017 -15.340607 -5.1171017z" fill-rule="evenodd"></path><path stroke="#ffffff" stroke-width="1.0" stroke-linejoin="round" stroke-linecap="butt" d="m398.15137 22.180595c-4.950897 0 -9.534424 1.2581997 -13.750549 3.7745914c-4.204071 2.5034256 -7.336029 6.265047 -9.395905 11.284864c-2.0598755 5.019821 -3.0898132 10.876274 -3.0898132 17.569366c0 10.3509445 2.3911438 18.30223 7.1734314 23.853867c4.7943115 5.538666 11.130524 8.307999 19.008636 8.307999c6.288025 0 11.588287 -2.0105286 15.900757 -6.031563c4.3245544 -4.0340195 7.010803 -9.611595 8.058807 -16.732735l-9.594666 -1.3425102c-0.686615 5.2532997 -2.3128357 9.144634 -4.8786316 11.674c-2.5658264 2.5293655 -5.764038 3.7940521 -9.594666 3.7940521c-4.770233 0 -8.637024 -1.8872986 -11.600342 -5.6618958c-2.9633179 -3.7745895 -4.4450073 -9.825611 -4.4450073 -18.15306c0 -8.210712 1.5358887 -14.20985 4.6076355 -17.997414c3.0717163 -3.8005333 7.0650024 -5.7008038 11.979767 -5.7008038c3.2524414 0 6.023041 1.0506592 8.311768 3.1519794c2.3008118 2.1013184 3.9029236 5.233841 4.806366 9.397568l9.486267 -1.5759888c-1.1203003 -6.265045 -3.6680298 -11.096783 -7.643219 -14.495214c-3.9751892 -3.4113998 -9.088745 -5.1171017 -15.340637 -5.1171017z" fill-rule="evenodd"></path><path stroke="#ffffff" stroke-width="1.0" stroke-linejoin="round" stroke-linecap="butt" d="m454.14737 30.819353c4.9509277 0 8.980316 2.0234928 12.088196 6.0704784c2.0237427 2.607193 3.2524414 6.5179825 3.6860962 11.732368l-32.144836 0c0.32522583 -5.408951 2.0116882 -9.7283325 5.059326 -12.9581375c3.0596924 -3.229805 6.8301086 -4.8447094 11.311218 -4.8447094zm-0.10839844 -8.638758c-7.9503784 0 -14.419098 2.8795853 -19.406158 8.638758c-4.9870605 5.7591724 -7.480591 13.853144 -7.480591 24.281916c0 10.078548 2.4634094 17.913097 7.3902283 23.50365c4.9388733 5.577568 11.618408 8.366364 20.038574 8.366364c6.6855774 0 12.178558 -1.7510986 16.479004 -5.2533035c4.300415 -3.5021973 7.2456665 -8.424728 8.835754 -14.767601l-10.08252 -1.342514c-1.4816895 4.436119 -3.4873352 7.665924 -6.0169983 9.689423c-2.529663 2.023491 -5.5833435 3.0352402 -9.161011 3.0352402c-4.806366 0 -8.8177185 -1.8094711 -12.033997 -5.4284134c-3.2163086 -3.6189346 -5.005127 -8.833321 -5.366516 -15.643154l42.932068 0c0.03616333 -1.2452278 0.054229736 -2.1791496 0.054229736 -2.8017616c0 -10.234203 -2.439331 -18.172523 -7.317993 -23.814955c-4.8786316 -5.6424313 -11.1666565 -8.463648 -18.864075 -8.463648z" fill-rule="evenodd"></path><path stroke="#ffffff" stroke-width="1.0" stroke-linejoin="round" stroke-linecap="butt" d="m511.0649 22.180595c-2.9994812 0 -5.8122253 0.4215622 -8.438263 1.2646828c-2.6139832 0.8301525 -4.6798706 1.848383 -6.197693 3.054697c-2.0237122 1.5565319 -3.6258545 3.515171 -4.806366 5.87591c-1.168457 2.3477745 -1.7526855 4.90308 -1.7526855 7.665928c0 3.0352364 0.7107239 5.811058 2.132141 8.32745c1.4334717 2.5034218 3.52948 4.468544 6.288025 5.8953705c2.7705994 1.4138451 7.7335815 3.0936089 14.8888855 5.039276c5.312317 1.4397926 8.637024 2.626648 9.974121 3.560566c1.9153442 1.3619652 2.8729858 3.2298088 2.8729858 5.6035194c0 2.6461105 -1.0841064 4.9549637 -3.2523804 6.9265747c-2.168335 1.9586334 -5.493042 2.9379578 -9.974121 2.9379578c-4.4450073 0 -7.908264 -1.1090317 -10.38974 -3.327095c-2.469452 -2.2180557 -3.9751892 -5.408951 -4.5172424 -9.572678l-9.648895 1.6343613c1.084137 6.576355 3.5837097 11.537804 7.498657 14.884346c3.927002 3.34655 9.630798 5.019821 17.11142 5.019821c4.517273 0 8.564697 -0.8431244 12.142395 -2.5293655c3.5776367 -1.6992188 6.312134 -4.092392 8.203369 -7.179512c1.9032593 -3.1000977 2.8548584 -6.4012375 2.8548584 -9.903442c0 -3.5800247 -0.7769165 -6.5763474 -2.3308716 -8.988976c-1.5539551 -2.4126244 -3.69812 -4.2480392 -6.432617 -5.506237c-2.722412 -1.2711716 -7.53479 -2.899044 -14.437134 -4.883621c-4.7702637 -1.4008789 -7.643219 -2.295887 -8.6189575 -2.6850204c-1.6984863 -0.7393532 -2.9452515 -1.6732712 -3.7402954 -2.8017578c-0.79504395 -1.0895729 -1.1925659 -2.315342 -1.1925659 -3.677311c0 -2.140232 0.9576721 -4.008072 2.8729858 -5.6035156c1.9153137 -1.5954475 5.113556 -2.3931713 9.594666 -2.3931713c3.7944946 0 6.727722 0.8950062 8.799622 2.6850185c2.0839844 1.7900124 3.3427734 4.280468 3.7764282 7.4713593l9.540466 -1.4008789c-0.61431885 -4.008072 -1.7346191 -7.205448 -3.3608398 -9.592134c-1.6262207 -2.3996544 -4.1498413 -4.299923 -7.570923 -5.7008038c-3.4090576 -1.4008789 -7.3721924 -2.1013184 -11.889435 -2.1013184z" fill-rule="evenodd"></path><path stroke="#ffffff" stroke-width="1.0" stroke-linejoin="round" stroke-linecap="butt" d="m566.57306 22.180595c-2.9994507 0 -5.812256 0.4215622 -8.438293 1.2646828c-2.6139526 0.8301525 -4.6798706 1.848383 -6.197632 3.054697c-2.0237427 1.5565319 -3.6259155 3.515171 -4.8063965 5.87591c-1.168457 2.3477745 -1.7526855 4.90308 -1.7526855 7.665928c0 3.0352364 0.71069336 5.811058 2.132141 8.32745c1.4334717 2.5034218 3.52948 4.468544 6.288025 5.8953705c2.7705688 1.4138451 7.7335815 3.0936089 14.888916 5.039276c5.312317 1.4397926 8.637024 2.626648 9.974121 3.560566c1.9152832 1.3619652 2.8729858 3.2298088 2.8729858 5.6035194c0 2.6461105 -1.0841675 4.9549637 -3.2524414 6.9265747c-2.168274 1.9586334 -5.492981 2.9379578 -9.974121 2.9379578c-4.4450073 0 -7.908264 -1.1090317 -10.389709 -3.327095c-2.4694214 -2.2180557 -3.9752197 -5.408951 -4.517273 -9.572678l-9.648865 1.6343613c1.0841675 6.576355 3.5836792 11.537804 7.498657 14.884346c3.927002 3.34655 9.630798 5.019821 17.11139 5.019821c4.517273 0 8.564758 -0.8431244 12.142395 -2.5293655c3.5776978 -1.6992188 6.312134 -4.092392 8.203369 -7.179512c1.9032593 -3.1000977 2.8549194 -6.4012375 2.8549194 -9.903442c0 -3.5800247 -0.77697754 -6.5763474 -2.3309326 -8.988976c-1.5539551 -2.4126244 -3.69812 -4.2480392 -6.432556 -5.506237c-2.722412 -1.2711716 -7.53479 -2.899044 -14.437195 -4.883621c-4.7702026 -1.4008789 -7.6431885 -2.295887 -8.6189575 -2.6850204c-1.6984863 -0.7393532 -2.9452515 -1.6732712 -3.7402954 -2.8017578c-0.79504395 -1.0895729 -1.1925659 -2.315342 -1.1925659 -3.677311c0 -2.140232 0.95770264 -4.008072 2.8729858 -5.6035156c1.9153442 -1.5954475 5.1135864 -2.3931713 9.594666 -2.3931713c3.7945557 0 6.727722 0.8950062 8.799683 2.6850185c2.0839233 1.7900124 3.3427734 4.280468 3.7764282 7.4713593l9.540466 -1.4008789c-0.6143799 -4.008072 -1.7346802 -7.205448 -3.3609009 -9.592134c-1.6261597 -2.3996544 -4.1498413 -4.299923 -7.570923 -5.7008038c-3.4089966 -1.4008789 -7.3721313 -2.1013184 -11.889404 -2.1013184z" fill-rule="evenodd"></path><path fill="#ffffff" d="m0 113.708664l606.6457 0l0 9.480316l-606.6457 0z" fill-rule="evenodd"></path><path stroke="#ffffff" stroke-width="1.0" stroke-linejoin="round" stroke-linecap="butt" d="m0 113.708664l606.6457 0l0 9.480316l-606.6457 0z" fill-rule="evenodd"></path><path fill="#ffffff" d="m304.12857 129.14961l0 41.098602l5.993347 0l0 -34.987076l13.589203 34.987076l5.608734 0l13.65329 -34.39836l0 34.39836l5.993347 0l0 -41.098602l-8.365051 0l-11.249542 28.5952c-1.1324158 2.8969116 -1.9657288 5.0929413 -2.499878 6.5881195c-0.47009277 -1.3456573 -1.217926 -3.3734894 -2.2434998 -6.083496l-11.121338 -29.099823z" fill-rule="evenodd"></path><path fill="#ffffff" d="m372.29886 143.95183c2.9272156 0 5.309601 0.9718628 7.1471252 2.9155884c1.1965332 1.2522125 1.9230042 3.1305237 2.1794128 5.6349487l-19.005646 0c0.19232178 -2.5978699 1.1894226 -4.6724243 2.991333 -6.2236633c1.8090515 -1.551239 4.0382996 -2.3268738 6.6877747 -2.3268738zm-0.06411743 -4.149109c-4.700653 0 -8.525269 1.3830414 -11.473877 4.149109c-2.948578 2.7660828 -4.422882 6.653534 -4.422882 11.662369c0 4.840622 1.4564819 8.603485 4.3694763 11.288559c2.920105 2.6788635 6.8693542 4.01828 11.847809 4.01828c3.9528198 0 7.200531 -0.84103394 9.743164 -2.5231018c2.542633 -1.6820679 4.284027 -4.0463104 5.2241516 -7.0927277l-5.9613037 -0.64479065c-0.8760071 2.1306152 -2.0618591 3.6818542 -3.5575256 4.653717c-1.4956665 0.9718628 -3.3011475 1.4577942 -5.416443 1.4577942c-2.8417664 0 -5.2134705 -0.86906433 -7.1151123 -2.6072083c-1.9016113 -1.7381287 -2.959259 -4.2425537 -3.172943 -7.5132446l25.383575 0c0.021362305 -0.59806824 0.032043457 -1.0466309 0.032043457 -1.3456573c0 -4.91539 -1.4422302 -8.728088 -4.326721 -11.43808c-2.8845215 -2.7100067 -6.602295 -4.0650177 -11.153412 -4.0650177z" fill-rule="evenodd"></path><path fill="#ffffff" d="m394.63766 129.14961l0 41.098602l5.7690125 0l0 -41.098602z" fill-rule="evenodd"></path><path fill="#ffffff" d="m423.8993 143.95183c2.4999084 0 4.629425 0.9251404 6.3886414 2.7754211c1.7662964 1.8502808 2.6494446 4.7191467 2.6494446 8.606598c0 3.7940063 -0.9187622 6.650406 -2.7562866 8.569214c-1.8375244 1.9125824 -4.0169373 2.868866 -6.538208 2.868866c-3.0981445 0 -5.5553284 -1.2989197 -7.3714905 -3.8967896c-1.1110535 -1.588623 -1.6665955 -4.167801 -1.6665955 -7.7375336c0 -3.6257935 0.9187622 -6.3949738 2.7563171 -8.307556c1.8375244 -1.918808 4.0169067 -2.8782196 6.5381775 -2.8782196zm-14.582733 -14.802216l0 41.098602l5.352356 0l0 -3.728592c2.2862244 2.9342804 5.437805 4.401413 9.454742 4.401413c4.038269 0 7.4996643 -1.3923798 10.384186 -4.1771393c2.884491 -2.7847595 4.326721 -6.7282867 4.326721 -11.830566c0 -2.1493073 -0.3418579 -4.167801 -1.0255737 -6.0554504c-0.68374634 -1.8876648 -1.631012 -3.4980927 -2.8417664 -4.8312836c-1.2036743 -1.3394318 -2.7420654 -2.376709 -4.615204 -3.1118317c-1.8660278 -0.7413635 -3.8460083 -1.1120453 -5.9399414 -1.1120453c-3.7818909 0 -6.8907166 1.336319 -9.326538 4.0089417l0 -14.662048z" fill-rule="evenodd"></path><path fill="#ffffff" d="m459.66705 143.97987c2.8417664 0 5.2170105 0.950058 7.125763 2.850174c1.9158936 1.8938904 2.8738098 4.6817627 2.8738098 8.363632c0 3.9061432 -0.95080566 6.812378 -2.8524475 8.718735c-1.9016113 1.9063416 -4.2839966 2.8595123 -7.1471252 2.8595123c-2.884491 0 -5.2775574 -0.9469452 -7.179199 -2.8408203c-1.9016113 -1.900116 -2.8524475 -4.756531 -2.8524475 -8.569229c0 -3.812683 0.9508362 -6.6628723 2.8524475 -8.550522c1.9016418 -1.8876648 4.2947083 -2.831482 7.179199 -2.831482zm0 -4.1771545c-4.2092285 0 -7.777466 1.1026917 -10.704681 3.308075c-3.5041504 2.653946 -5.256195 6.7376404 -5.256195 12.251083c0 5.027527 1.4671631 8.877609 4.40152 11.550232c2.9414673 2.6726227 6.794586 4.0089264 11.559357 4.0089264c2.9699707 0 5.7084656 -0.6074066 8.215485 -1.8222351c2.5141296 -1.2148285 4.4264526 -2.9187012 5.7369385 -5.1116333c1.3175964 -2.1991425 1.9764099 -5.2144165 1.9764099 -9.045807c0 -4.728485 -1.4849854 -8.432159 -4.454956 -11.111008c-2.9699707 -2.685089 -6.794586 -4.0276337 -11.473877 -4.0276337z" fill-rule="evenodd"></path><path fill="#ffffff" d="m482.23022 140.47556l0 18.446716c0 2.1493073 0.11752319 3.7192383 0.35253906 4.709793c0.34188843 1.4764862 0.9330139 2.725586 1.7734375 3.747284c0.8475342 1.0154724 2.1402283 1.8596191 3.8780518 2.5324554c1.7449341 0.67282104 3.621643 1.0092316 5.6300964 1.0092316c4.551117 0 8.151398 -1.6820679 10.800842 -5.0462036l0 4.3733826l5.1600647 0l0 -29.77266l-5.7690125 0l0 15.951645c0 2.5417938 -0.31692505 4.4824066 -0.95080566 5.8218384c-0.62677 1.3331909 -1.6986389 2.3891602 -3.2156982 3.1678925c-1.5170288 0.7725067 -3.1408691 1.1587677 -4.871582 1.1587677c-1.7306824 0 -3.1836243 -0.3769226 -4.358795 -1.1307373c-1.1751709 -0.7600403 -1.9443665 -1.8035431 -2.3075867 -3.1305237c-0.23504639 -0.91578674 -0.35256958 -2.6912994 -0.35256958 -5.3265533l0 -16.51233z" fill-rule="evenodd"></path><path fill="#ffffff" d="m531.3628 139.80272c-1.3460693 0 -2.581787 0.33642578 -3.7070923 1.0092468c-1.1181641 0.6728363 -2.3396606 2.065216 -3.6643677 4.1771393l0 -4.51355l-5.1920776 0l0 29.77266l5.768982 0l0 -15.587189c0 -2.1306305 0.3204956 -4.093048 0.9614868 -5.887253c0.42730713 -1.1774445 1.1431274 -2.0963593 2.1473389 -2.7567291c1.0042114 -0.66659546 2.1366577 -0.9998932 3.3972778 -0.9998932c1.4102173 0 2.8204346 0.36444092 4.230591 1.093338l1.9871216 -4.6817627c-2.008484 -1.0839996 -3.9848633 -1.6260071 -5.9292603 -1.6260071z" fill-rule="evenodd"></path><path fill="#ffffff" d="m556.7464 139.80272c-4.722046 0 -8.333008 1.6353455 -10.832886 4.9060516l0 -4.2332153l-5.1921387 0l0 29.77266l5.769043 0l0 -16.260025c0 -3.8126984 0.8902588 -6.4012146 2.6708374 -7.765564c1.7876587 -1.3643494 3.9100952 -2.0465088 6.3672485 -2.0465088c1.5383911 0 2.8773804 0.30525208 4.0169067 0.91578674c1.1466675 0.6042938 1.944397 1.4172974 2.3930664 2.4390106c0.44873047 1.0154724 0.67303467 2.5511322 0.67303467 4.6069946l0 18.110306l5.768982 0l0 -18.30655c0 -2.336197 -0.10681152 -3.9715576 -0.3204956 -4.9060364c-0.3418579 -1.4391022 -0.9401245 -2.681961 -1.7947998 -3.728592c-0.85461426 -1.0466156 -2.1437378 -1.8907623 -3.8673096 -2.5324554c-1.7164917 -0.64790344 -3.6002808 -0.9718628 -5.6514893 -0.9718628z" fill-rule="evenodd"></path><path fill="#ffffff" d="m591.2642 143.95183c2.927185 0 5.3095703 0.9718628 7.1470947 2.9155884c1.1965332 1.2522125 1.9230347 3.1305237 2.1794434 5.6349487l-19.005676 0c0.19232178 -2.5978699 1.1894531 -4.6724243 2.991333 -6.2236633c1.809082 -1.551239 4.03833 -2.3268738 6.687805 -2.3268738zm-0.06414795 -4.149109c-4.7006226 0 -8.525269 1.3830414 -11.473877 4.149109c-2.9486084 2.7660828 -4.4229126 6.653534 -4.4229126 11.662369c0 4.840622 1.456543 8.603485 4.369507 11.288559c2.920105 2.6788635 6.869385 4.01828 11.847778 4.01828c3.9528809 0 7.2005615 -0.84103394 9.743225 -2.5231018c2.5426025 -1.6820679 4.2839966 -4.0463104 5.224121 -7.0927277l-5.9613037 -0.64479065c-0.8760376 2.1306152 -2.0618286 3.6818542 -3.557495 4.653717c-1.4956665 0.9718628 -3.3011475 1.4577942 -5.416443 1.4577942c-2.8417969 0 -5.213501 -0.86906433 -7.1151123 -2.6072083c-1.9016113 -1.7381287 -2.9592896 -4.2425537 -3.1729736 -7.5132446l25.383606 0c0.021362305 -0.59806824 0.032043457 -1.0466309 0.032043457 -1.3456573c0 -4.91539 -1.4422607 -8.728088 -4.326782 -11.43808c-2.8844604 -2.7100067 -6.602295 -4.0650177 -11.153381 -4.0650177z" fill-rule="evenodd"></path><path stroke="#ffffff" stroke-width="1.0" stroke-linejoin="round" stroke-linecap="butt" d="m304.12857 129.14961l0 41.098602l5.993347 0l0 -34.987076l13.589203 34.987076l5.608734 0l13.65329 -34.39836l0 34.39836l5.993347 0l0 -41.098602l-8.365051 0l-11.249542 28.5952c-1.1324158 2.8969116 -1.9657288 5.0929413 -2.499878 6.5881195c-0.47009277 -1.3456573 -1.217926 -3.3734894 -2.2434998 -6.083496l-11.121338 -29.099823z" fill-rule="evenodd"></path><path stroke="#ffffff" stroke-width="1.0" stroke-linejoin="round" stroke-linecap="butt" d="m372.29886 143.95183c2.9272156 0 5.309601 0.9718628 7.1471252 2.9155884c1.1965332 1.2522125 1.9230042 3.1305237 2.1794128 5.6349487l-19.005646 0c0.19232178 -2.5978699 1.1894226 -4.6724243 2.991333 -6.2236633c1.8090515 -1.551239 4.0382996 -2.3268738 6.6877747 -2.3268738zm-0.06411743 -4.149109c-4.700653 0 -8.525269 1.3830414 -11.473877 4.149109c-2.948578 2.7660828 -4.422882 6.653534 -4.422882 11.662369c0 4.840622 1.4564819 8.603485 4.3694763 11.288559c2.920105 2.6788635 6.8693542 4.01828 11.847809 4.01828c3.9528198 0 7.200531 -0.84103394 9.743164 -2.5231018c2.542633 -1.6820679 4.284027 -4.0463104 5.2241516 -7.0927277l-5.9613037 -0.64479065c-0.8760071 2.1306152 -2.0618591 3.6818542 -3.5575256 4.653717c-1.4956665 0.9718628 -3.3011475 1.4577942 -5.416443 1.4577942c-2.8417664 0 -5.2134705 -0.86906433 -7.1151123 -2.6072083c-1.9016113 -1.7381287 -2.959259 -4.2425537 -3.172943 -7.5132446l25.383575 0c0.021362305 -0.59806824 0.032043457 -1.0466309 0.032043457 -1.3456573c0 -4.91539 -1.4422302 -8.728088 -4.326721 -11.43808c-2.8845215 -2.7100067 -6.602295 -4.0650177 -11.153412 -4.0650177z" fill-rule="evenodd"></path><path stroke="#ffffff" stroke-width="1.0" stroke-linejoin="round" stroke-linecap="butt" d="m394.63766 129.14961l0 41.098602l5.7690125 0l0 -41.098602z" fill-rule="evenodd"></path><path stroke="#ffffff" stroke-width="1.0" stroke-linejoin="round" stroke-linecap="butt" d="m423.8993 143.95183c2.4999084 0 4.629425 0.9251404 6.3886414 2.7754211c1.7662964 1.8502808 2.6494446 4.7191467 2.6494446 8.606598c0 3.7940063 -0.9187622 6.650406 -2.7562866 8.569214c-1.8375244 1.9125824 -4.0169373 2.868866 -6.538208 2.868866c-3.0981445 0 -5.5553284 -1.2989197 -7.3714905 -3.8967896c-1.1110535 -1.588623 -1.6665955 -4.167801 -1.6665955 -7.7375336c0 -3.6257935 0.9187622 -6.3949738 2.7563171 -8.307556c1.8375244 -1.918808 4.0169067 -2.8782196 6.5381775 -2.8782196zm-14.582733 -14.802216l0 41.098602l5.352356 0l0 -3.728592c2.2862244 2.9342804 5.437805 4.401413 9.454742 4.401413c4.038269 0 7.4996643 -1.3923798 10.384186 -4.1771393c2.884491 -2.7847595 4.326721 -6.7282867 4.326721 -11.830566c0 -2.1493073 -0.3418579 -4.167801 -1.0255737 -6.0554504c-0.68374634 -1.8876648 -1.631012 -3.4980927 -2.8417664 -4.8312836c-1.2036743 -1.3394318 -2.7420654 -2.376709 -4.615204 -3.1118317c-1.8660278 -0.7413635 -3.8460083 -1.1120453 -5.9399414 -1.1120453c-3.7818909 0 -6.8907166 1.336319 -9.326538 4.0089417l0 -14.662048z" fill-rule="evenodd"></path><path stroke="#ffffff" stroke-width="1.0" stroke-linejoin="round" stroke-linecap="butt" d="m459.66705 143.97987c2.8417664 0 5.2170105 0.950058 7.125763 2.850174c1.9158936 1.8938904 2.8738098 4.6817627 2.8738098 8.363632c0 3.9061432 -0.95080566 6.812378 -2.8524475 8.718735c-1.9016113 1.9063416 -4.2839966 2.8595123 -7.1471252 2.8595123c-2.884491 0 -5.2775574 -0.9469452 -7.179199 -2.8408203c-1.9016113 -1.900116 -2.8524475 -4.756531 -2.8524475 -8.569229c0 -3.812683 0.9508362 -6.6628723 2.8524475 -8.550522c1.9016418 -1.8876648 4.2947083 -2.831482 7.179199 -2.831482zm0 -4.1771545c-4.2092285 0 -7.777466 1.1026917 -10.704681 3.308075c-3.5041504 2.653946 -5.256195 6.7376404 -5.256195 12.251083c0 5.027527 1.4671631 8.877609 4.40152 11.550232c2.9414673 2.6726227 6.794586 4.0089264 11.559357 4.0089264c2.9699707 0 5.7084656 -0.6074066 8.215485 -1.8222351c2.5141296 -1.2148285 4.4264526 -2.9187012 5.7369385 -5.1116333c1.3175964 -2.1991425 1.9764099 -5.2144165 1.9764099 -9.045807c0 -4.728485 -1.4849854 -8.432159 -4.454956 -11.111008c-2.9699707 -2.685089 -6.794586 -4.0276337 -11.473877 -4.0276337z" fill-rule="evenodd"></path><path stroke="#ffffff" stroke-width="1.0" stroke-linejoin="round" stroke-linecap="butt" d="m482.23022 140.47556l0 18.446716c0 2.1493073 0.11752319 3.7192383 0.35253906 4.709793c0.34188843 1.4764862 0.9330139 2.725586 1.7734375 3.747284c0.8475342 1.0154724 2.1402283 1.8596191 3.8780518 2.5324554c1.7449341 0.67282104 3.621643 1.0092316 5.6300964 1.0092316c4.551117 0 8.151398 -1.6820679 10.800842 -5.0462036l0 4.3733826l5.1600647 0l0 -29.77266l-5.7690125 0l0 15.951645c0 2.5417938 -0.31692505 4.4824066 -0.95080566 5.8218384c-0.62677 1.3331909 -1.6986389 2.3891602 -3.2156982 3.1678925c-1.5170288 0.7725067 -3.1408691 1.1587677 -4.871582 1.1587677c-1.7306824 0 -3.1836243 -0.3769226 -4.358795 -1.1307373c-1.1751709 -0.7600403 -1.9443665 -1.8035431 -2.3075867 -3.1305237c-0.23504639 -0.91578674 -0.35256958 -2.6912994 -0.35256958 -5.3265533l0 -16.51233z" fill-rule="evenodd"></path><path stroke="#ffffff" stroke-width="1.0" stroke-linejoin="round" stroke-linecap="butt" d="m531.3628 139.80272c-1.3460693 0 -2.581787 0.33642578 -3.7070923 1.0092468c-1.1181641 0.6728363 -2.3396606 2.065216 -3.6643677 4.1771393l0 -4.51355l-5.1920776 0l0 29.77266l5.768982 0l0 -15.587189c0 -2.1306305 0.3204956 -4.093048 0.9614868 -5.887253c0.42730713 -1.1774445 1.1431274 -2.0963593 2.1473389 -2.7567291c1.0042114 -0.66659546 2.1366577 -0.9998932 3.3972778 -0.9998932c1.4102173 0 2.8204346 0.36444092 4.230591 1.093338l1.9871216 -4.6817627c-2.008484 -1.0839996 -3.9848633 -1.6260071 -5.9292603 -1.6260071z" fill-rule="evenodd"></path><path stroke="#ffffff" stroke-width="1.0" stroke-linejoin="round" stroke-linecap="butt" d="m556.7464 139.80272c-4.722046 0 -8.333008 1.6353455 -10.832886 4.9060516l0 -4.2332153l-5.1921387 0l0 29.77266l5.769043 0l0 -16.260025c0 -3.8126984 0.8902588 -6.4012146 2.6708374 -7.765564c1.7876587 -1.3643494 3.9100952 -2.0465088 6.3672485 -2.0465088c1.5383911 0 2.8773804 0.30525208 4.0169067 0.91578674c1.1466675 0.6042938 1.944397 1.4172974 2.3930664 2.4390106c0.44873047 1.0154724 0.67303467 2.5511322 0.67303467 4.6069946l0 18.110306l5.768982 0l0 -18.30655c0 -2.336197 -0.10681152 -3.9715576 -0.3204956 -4.9060364c-0.3418579 -1.4391022 -0.9401245 -2.681961 -1.7947998 -3.728592c-0.85461426 -1.0466156 -2.1437378 -1.8907623 -3.8673096 -2.5324554c-1.7164917 -0.64790344 -3.6002808 -0.9718628 -5.6514893 -0.9718628z" fill-rule="evenodd"></path><path stroke="#ffffff" stroke-width="1.0" stroke-linejoin="round" stroke-linecap="butt" d="m591.2642 143.95183c2.927185 0 5.3095703 0.9718628 7.1470947 2.9155884c1.1965332 1.2522125 1.9230347 3.1305237 2.1794434 5.6349487l-19.005676 0c0.19232178 -2.5978699 1.1894531 -4.6724243 2.991333 -6.2236633c1.809082 -1.551239 4.03833 -2.3268738 6.687805 -2.3268738zm-0.06414795 -4.149109c-4.7006226 0 -8.525269 1.3830414 -11.473877 4.149109c-2.9486084 2.7660828 -4.4229126 6.653534 -4.4229126 11.662369c0 4.840622 1.456543 8.603485 4.369507 11.288559c2.920105 2.6788635 6.869385 4.01828 11.847778 4.01828c3.9528809 0 7.2005615 -0.84103394 9.743225 -2.5231018c2.5426025 -1.6820679 4.2839966 -4.0463104 5.224121 -7.0927277l-5.9613037 -0.64479065c-0.8760376 2.1306152 -2.0618286 3.6818542 -3.557495 4.653717c-1.4956665 0.9718628 -3.3011475 1.4577942 -5.416443 1.4577942c-2.8417969 0 -5.213501 -0.86906433 -7.1151123 -2.6072083c-1.9016113 -1.7381287 -2.9592896 -4.2425537 -3.1729736 -7.5132446l25.383606 0c0.021362305 -0.59806824 0.032043457 -1.0466309 0.032043457 -1.3456573c0 -4.91539 -1.4422607 -8.728088 -4.326782 -11.43808c-2.8844604 -2.7100067 -6.602295 -4.0650177 -11.153381 -4.0650177z" fill-rule="evenodd"></path></g></svg>

